<svg xmlns:xlink="http://www.w3.org/1999/xlink" width="48" xmlns="http://www.w3.org/2000/svg" height="48" id="screenshot-d095b038-c1c6-80b8-8001-939222f2a81f" viewBox="0 0 48 48" style="-webkit-print-color-adjust: exact;" fill="none" version="1.1"><g id="shape-d095b038-c1c6-80b8-8001-939222f2a81f" width="48" height="48" rx="0" ry="0" style="fill: rgb(0, 0, 0);"><g id="shape-d095b038-c1c6-80b8-8001-939222f2a821"><g id="fills-d095b038-c1c6-80b8-8001-939222f2a821"><path fill-rule="evenodd" clip-rule="evenodd" rx="0" ry="0" d="M24.04,6C19.523,6,15.407,7.492,12.972,8.711C12.752,8.821,12.547,8.929,12.356,9.033C11.978,9.239,11.656,9.431,11.4,9.6L14.17,13.678L15.474,14.197C20.57,16.768,27.404,16.768,32.501,14.197L33.981,13.429L36.601,9.6C36.058,9.246,35.494,8.926,34.911,8.643C32.489,7.437,28.472,6,24.04,6ZZM17.597,10.616C16.616,10.432,15.647,10.189,14.696,9.888C16.977,8.875,20.377,7.8,24.039,7.8C26.576,7.8,28.975,8.316,30.959,8.97C28.634,9.297,26.153,9.852,23.789,10.535C21.929,11.073,19.755,11.015,17.597,10.616ZL17.597,10.616ZZM33.557,15.68L33.312,15.804C27.705,18.632,20.269,18.632,14.662,15.804L14.43,15.686C6.008,24.927,-0.422,41.997,24.04,41.997C48.5,41.997,41.913,24.608,33.557,15.68ZZM23,24C22.47,24,21.961,24.211,21.586,24.586C21.211,24.961,21,25.47,21,26C21,26.53,21.211,27.039,21.586,27.414C21.961,27.789,22.47,28,23,28L23,24ZZM25,22L25,21L23,21L23,22C21.939,22,20.922,22.421,20.172,23.172C19.421,23.922,19,24.939,19,26C19,27.061,19.421,28.078,20.172,28.828C20.922,29.579,21.939,30,23,30L23,34C22.586,34,22.183,33.872,21.845,33.633C21.507,33.394,21.252,33.057,21.114,32.667C21.026,32.417,20.842,32.212,20.602,32.098C20.363,31.983,20.088,31.969,19.838,32.057C19.588,32.145,19.383,32.329,19.269,32.569C19.154,32.808,19.14,33.083,19.228,33.333C19.504,34.113,20.015,34.788,20.69,35.266C21.366,35.743,22.173,36,23,36L23,37L25,37L25,36C26.061,36,27.078,35.579,27.828,34.828C28.579,34.078,29,33.061,29,32C29,30.939,28.579,29.922,27.828,29.172C27.078,28.421,26.061,28,25,28L25,24C25.87,24,26.611,24.555,26.887,25.333C26.928,25.46,26.994,25.578,27.081,25.679C27.168,25.781,27.275,25.863,27.395,25.923C27.515,25.982,27.645,26.017,27.779,26.025C27.912,26.033,28.046,26.014,28.172,25.97C28.298,25.925,28.414,25.856,28.513,25.766C28.612,25.676,28.691,25.567,28.747,25.445C28.803,25.324,28.834,25.192,28.838,25.058C28.843,24.925,28.82,24.792,28.772,24.667C28.496,23.887,27.985,23.212,27.31,22.734C26.634,22.257,25.827,22,25,22ZZM25,30L25,34C25.53,34,26.039,33.789,26.414,33.414C26.789,33.039,27,32.53,27,32C27,31.47,26.789,30.961,26.414,30.586C26.039,30.211,25.53,30,25,30ZZ" style="fill: rgb(166, 107, 8); fill-opacity: 1;"/></g></g></g></svg>